<svg width="52" height="36" viewBox="0 0 52 36" fill="none" xmlns="http://www.w3.org/2000/svg">
<path fill-rule="evenodd" clip-rule="evenodd" d="M16.2093 7.21191C11.1268 7.31046 8.66061 7.97423 8.66061 7.97423C7.55109 8.27281 6.30457 9.34658 5.89042 10.3611L4.22288 14.4437H1.92316C0.865394 14.4437 0 15.2585 0 16.2547C0 17.2506 0.865331 18.0657 1.92316 18.0657H2.74341L2.15171 19.5146C1.73757 20.5281 1.39858 22.2473 1.39858 23.3339V31.8949C1.39858 33.1625 2.50005 34.1997 3.84609 34.1997C5.19214 34.1997 6.29361 33.1625 6.29361 31.8949V30.578H23.6686C21.2808 27.3645 19.0919 23.0805 17.6905 17.407H6.64354C6.25891 17.407 6.05295 17.1288 6.18588 16.7893L8.14999 11.769C8.28316 11.4291 8.70658 11.1509 9.09119 11.1509H16.5602C16.4428 10.1752 16.3466 9.16724 16.2735 8.12606L16.2093 7.21191ZM7.58686 25.772C9.04428 25.772 10.2258 24.654 10.2258 23.2749C10.2258 21.8958 9.04428 20.7778 7.58686 20.7778C6.12943 20.7778 4.94795 21.8958 4.94795 23.2749C4.94795 24.654 6.12943 25.772 7.58686 25.772Z" fill="#1A1A1A"/>
<path fill-rule="evenodd" clip-rule="evenodd" d="M35.8621 36C35.8621 36 50.3684 31.964 52 7.81193C52 7.81193 44.6253 7.48628 35.8621 0C27.0975 7.48632 19.7241 7.81193 19.7241 7.81193C21.356 31.9635 35.8621 36 35.8621 36Z" fill="#465587"/>
</svg>
