<svg width="157" height="32" viewBox="0 0 157 32" fill="none" xmlns="http://www.w3.org/2000/svg">
<g clip-path="url(#clip0_899_583)">
<path d="M0 0H27.3234V1.83541H1.82156V30.3241H27.1651V32H0V0Z" fill="#BBAE91"/>
<path d="M24.2348 10.6934H13.939V12.6884H22.4924V19.7906H13.939V21.7058H24.2348V10.6934Z" fill="#BBAE91"/>
<path d="M45.2533 29.9687V15.5288H47.913C50.3346 15.5288 54.5823 15.8488 55.7336 16.0488V14.4488C54.5823 14.6888 50.3346 15.0488 47.913 15.0488H45.2533V2.00881H49.6598C53.8678 2.00881 57.3215 2.08881 60.021 3.6888L59.9019 1.52881H41.8789V30.4487H60.4577L60.8943 28.0887C57.2421 29.8087 51.6447 29.9687 47.7939 29.9687H45.2533Z" fill="black"/>
<path d="M83.3801 23.2087C83.3801 18.4887 79.053 15.9287 74.9641 13.7287C71.0737 11.7287 67.6596 9.76866 67.6596 5.88866C67.6596 3.64866 68.9697 1.36867 73.4953 1.36867C77.1475 1.36867 79.5294 3.00866 80.9982 5.08866L81.2364 2.84866C79.2118 1.72867 76.6711 0.888672 73.4953 0.888672C67.3024 0.888672 64.8014 4.16866 64.8014 7.72866C64.8014 12.0887 68.6918 14.4087 72.9792 16.7287C76.949 18.7687 80.4822 21.4087 80.4822 24.9687C80.4822 27.8086 78.537 30.5286 73.7335 30.5286C69.327 30.5286 66.4687 28.4086 64.8808 26.4086L64.6426 28.6486C68.5727 30.8486 72.5822 31.0086 73.7732 31.0086C79.8867 31.0086 83.3801 27.3286 83.3801 23.2087Z" fill="black"/>
<path d="M100.179 30.4487V2.00881H102.879C108.04 2.00881 109.866 3.0088 111.057 3.6888L110.938 1.52881H86.0468L85.9277 3.6888C87.1187 3.0088 88.9845 2.00881 94.1453 2.00881H96.805V30.4487H100.179Z" fill="black"/>
<path d="M118.64 29.9687V15.5288H121.3C123.722 15.5288 127.97 15.8488 129.121 16.0488V14.4488C127.97 14.6888 123.722 15.0488 121.3 15.0488H118.64V2.00881H123.047C127.255 2.00881 130.709 2.08881 133.408 3.6888L133.289 1.52881H115.266V30.4487H133.845L134.282 28.0887C130.629 29.8087 125.032 29.9687 121.181 29.9687H118.64Z" fill="black"/>
<path d="M156.767 23.2087C156.767 18.4887 152.44 15.9287 148.351 13.7287C144.461 11.7287 141.047 9.76866 141.047 5.88866C141.047 3.64866 142.357 1.36867 146.882 1.36867C150.535 1.36867 152.917 3.00866 154.385 5.08866L154.624 2.84866C152.599 1.72867 150.058 0.888672 146.882 0.888672C140.69 0.888672 138.189 4.16866 138.189 7.72866C138.189 12.0887 142.079 14.4087 146.366 16.7287C150.336 18.7687 153.869 21.4087 153.869 24.9687C153.869 27.8086 151.924 30.5286 147.121 30.5286C142.714 30.5286 139.856 28.4086 138.268 26.4086L138.03 28.6486C141.96 30.8486 145.969 31.0086 147.16 31.0086C153.274 31.0086 156.767 27.3286 156.767 23.2087Z" fill="black"/>
</g>
<defs>
<clipPath id="clip0_899_583">
<rect width="157" height="32" fill="white"/>
</clipPath>
</defs>
</svg>
